<?xml version="1.0" encoding="UTF-8" standalone="no"?><!-- Generator: Gravit.io --><svg xmlns="http://www.w3.org/2000/svg" xmlns:xlink="http://www.w3.org/1999/xlink" style="isolation:isolate" viewBox="0 0.005 512 511.991" width="512pt" height="511.991pt"><defs><clipPath id="_clipPath_8gNEwgkIdV1GNAghSyrlLkvaWoCUgjj3"><rect x="0" y="0.005" width="512" height="511.991"/></clipPath></defs><g clip-path="url(#_clipPath_8gNEwgkIdV1GNAghSyrlLkvaWoCUgjj3)"><g><path d=" M 283.707 346.077 C 268.249 322.896 260 295.658 260 267.796 L 260 80.003 C 260 57.798 272.071 38.426 290 28.051 C 281.173 22.943 270.933 20.004 260 20.004 C 226.864 20.004 200.001 46.866 200.001 80.003 L 200.001 277.847 C 200.001 305.709 208.25 332.947 223.708 356.128 L 260 408.996 L 293.45 360.269 L 283.707 346.077 Z " fill="rgb(206,225,242)"/><path d=" M 260 428.997 C 253.41 428.997 247.242 425.751 243.512 420.317 L 207.219 367.448 C 207.168 367.374 207.118 367.3 207.069 367.225 C 189.362 340.671 180.003 309.765 180.003 277.848 L 180.003 80.004 C 180.003 35.892 215.89 0.005 260.001 0.005 C 304.113 0.005 340 35.892 340 80.004 L 340 277.848 C 340 309.765 330.641 340.67 312.933 367.225 C 312.884 367.3 312.834 367.374 312.784 367.448 L 276.491 420.317 C 272.758 425.75 266.59 428.997 260 428.997 Z  M 240.272 344.92 L 260 373.659 L 279.728 344.922 C 292.99 324.986 300 301.795 300 277.848 L 300 80.004 C 300 57.948 282.056 40.004 260 40.004 C 237.945 40.004 220.001 57.948 220.001 80.004 L 220.001 277.848 C 220.001 301.795 227.01 324.984 240.272 344.92 Z  M 511.996 491.996 C 511.996 480.951 503.042 471.997 491.996 471.997 L 20.005 471.997 C 8.959 471.997 0.005 480.951 0.005 491.996 C 0.005 503.042 8.959 511.996 20.005 511.996 L 491.996 511.996 C 503.041 511.996 511.996 503.041 511.996 491.996 Z " fill="rgb(146,239,164)"/><path d=" M 380.578 376.136 C 375.52 376.136 370.461 374.23 366.568 370.407 C 358.686 362.67 358.57 350.007 366.308 342.125 L 414.552 292.988 C 422.292 285.105 434.953 284.99 442.834 292.729 C 450.716 300.467 450.832 313.129 443.094 321.011 L 394.85 370.148 C 390.934 374.136 385.757 376.136 380.578 376.136 Z  M 414.24 442.655 L 496.68 422.793 C 507.418 420.206 514.027 409.403 511.439 398.665 C 508.851 387.927 498.048 381.315 487.311 383.906 L 404.871 403.769 C 394.133 406.356 387.524 417.159 390.112 427.896 C 392.32 437.06 400.51 443.216 409.539 443.216 C 411.089 443.216 412.666 443.035 414.24 442.655 L 414.24 442.655 Z  M 461.997 247.751 C 461.997 261.557 473.19 272.75 486.996 272.75 C 500.803 272.75 511.996 261.557 511.996 247.751 C 511.996 233.944 500.803 222.751 486.996 222.751 C 473.19 222.751 461.997 233.943 461.997 247.751 L 461.997 247.751 Z  M 145.432 370.407 C 153.314 362.67 153.43 350.007 145.692 342.125 L 97.448 292.988 C 89.709 285.105 77.048 284.99 69.166 292.729 C 61.284 300.467 61.168 313.129 68.906 321.011 L 117.15 370.148 C 121.066 374.137 126.242 376.136 131.422 376.136 C 136.479 376.136 141.54 374.229 145.432 370.407 L 145.432 370.407 Z  M 121.888 427.896 C 124.476 417.159 117.867 406.356 107.129 403.769 L 24.689 383.906 C 13.95 381.317 3.149 387.926 0.561 398.665 C -2.027 409.403 4.582 420.206 15.32 422.793 L 97.76 442.655 C 99.335 443.035 100.909 443.216 102.461 443.216 C 111.489 443.216 119.68 437.06 121.888 427.896 L 121.888 427.896 Z  M 25.005 222.751 C 11.198 222.751 0.005 233.944 0.005 247.751 C 0.005 261.557 11.198 272.75 25.005 272.75 C 38.811 272.75 50.004 261.557 50.004 247.751 C 50.004 233.943 38.811 222.751 25.005 222.751 Z " fill="rgb(189,246,201)"/></g></g></svg>